<svg xmlns="http://www.w3.org/2000/svg" viewBox="0 0 284.48 100.38"><defs><style>.cls-1{fill:#5cb130;}</style></defs><g id="Capa_2" data-name="Capa 2"><g id="Capa_1-2" data-name="Capa 1"><path class="cls-1" d="M73.07,33C61,33,51.52,42,51.52,54.69S61,76.53,73.07,76.53s21.61-9.14,21.61-21.84S85.19,33,73.07,33Zm0,33.72c-6.58,0-10.25-5.42-10.25-12s3.67-11.88,10.25-11.88,10.25,5.3,10.25,11.88S79.65,66.69,73.07,66.69Z"/><path class="cls-1" d="M118.06,43.74a11.9,11.9,0,0,0-9.32,4.37V44.32H99.6V75.66h10V59.18c0-4.72,2.21-6.47,4.66-6.47,3,0,4.42,2.15,4.42,6.11V75.66h10V55.5C128.6,47.88,124.23,43.74,118.06,43.74Z"/><path class="cls-1" d="M153.32,43.74a11.93,11.93,0,0,0-8.51,3.49V33.84h-10V75.66H144V72.11a12.52,12.52,0,0,0,9.32,4.13c8.44,0,14-7.28,14-16.25S161.76,43.74,153.32,43.74Zm-2.39,23.53c-3.09,0-6-2.39-6-7.34s3-7.22,6-7.22,6,2.27,6,7.28S154,67.27,150.93,67.27Z"/><path class="cls-1" d="M186,43.74c-9.32,0-16.07,6.82-16.07,16.19,0,9.73,6.46,16.25,16.13,16.25,7.81,0,13.34-4,15.26-11.18h-10c-.87,2.27-2.74,3.43-5.53,3.43q-4.82,0-5.59-5.94h21.25C203.25,52.18,196.32,43.74,186,43.74ZM180.3,56.26c.7-3.49,2.45-5.18,5.42-5.18s4.95,2,5.07,5.18Z"/><path class="cls-1" d="M206.3,33.84V75.66h10.07V33.84Z"/><path class="cls-1" d="M235.6,43.74c-7.75,0-13.16,4.78-13.74,12.06h9c.34-2.74,2-4.26,4.71-4.26s4.37,1.52,4.37,4.26v1.51a27.69,27.69,0,0,0-4.6-.35c-9,0-13.92,3.32-13.92,9.44,0,5.94,4.37,9.84,10.89,9.84,4,0,6.76-1.11,9-3.61v3h8V56.32C249.29,48.4,244.22,43.74,235.6,43.74Zm4.31,21.49c0,2.56-2,4.14-5.3,4.14-2.44,0-3.84-1.23-3.84-3.26s1.8-3.27,5.18-3.27a20,20,0,0,1,4,.41Z"/><path class="cls-1" d="M274.47,44.32l-6.06,19.4-6.76-19.4H250.82l12.23,31L258.68,86.9h10.89l14.91-42.58Z"/><path class="cls-1" d="M42.54.28c-.36.3-.7.84-1,0,0,0-.11,0-.16,0-.58.1-1.19.07-1.63.64a1.52,1.52,0,0,1-1.24.58c0-.19,0-.42-.06-.43C37.79.86,37.16.7,36.54.58c-.12,0-.39.17-.38.23.07.6-.46.94-.61,1.45C35.19,3.53,34.67,4.75,34.2,6s-1,2.36-1.39,3.6a22.31,22.31,0,0,1-1.6,3.88c-.37.74-.86,1.43-1.2,2.18-.17.38-.33.77-.52,1.14l.05.05A10,10,0,0,0,31.83,18c.74.4,1.47.81,2.19,1.24.5.29,1.06.68,1.64,1,.8-1.69,1.6-3.39,2.39-5.08.14-.29.23-.61.34-.91.2-.51.39-1,.61-1.54.46-1.09.94-2.18,1.4-3.28s.94-2.35,1.4-3.53c.08-.2.13-.42.21-.62.58-1.6.8-3.32,1.72-4.79C43.08-.12,43-.13,42.54.28Zm-10,15.09.2-.68a.42.42,0,0,1,.14.05C33.08,15,33.19,15.27,32.56,15.37Z"/><path class="cls-1" d="M41.2,29.29a.19.19,0,0,1,0-.18c.48-.36.18-.74,0-1.12s-.37-1-.56-1.52a7,7,0,0,0-3.79-3.84c-.13-.06-.37-.14-.42-.09s-.22.34-.45.17-.25-.24-.34-.33l.37-.39,0,0c-.73.25-.74.23-1.11-.17l.12-.27c-.5-.26-1-.55-1.44-.83-.83-.5-1.67-1-2.53-1.44A12.46,12.46,0,0,1,28.59,18L27,17.62a4,4,0,0,0-1.35-.29c-1.62.27-3.25.08-4.88.25a9,9,0,0,0-3.55,1.06,2.4,2.4,0,0,1-.91.27A8.19,8.19,0,0,0,12,20.62,7.37,7.37,0,0,0,9.5,24.05c-.12.34-.36.58-.48.88a3,3,0,0,0-.38,1.63c.12.43.1.65-.17.9A1.16,1.16,0,0,0,8.25,29a1.45,1.45,0,0,0-.66,1.1c0,1.1-.72,2.1-.36,3.22-.52,2.28.21,4.43.73,6.6a13.37,13.37,0,0,0,.8,2.19,6,6,0,0,0,1.11,1.94,21.23,21.23,0,0,0,2.24-1.9c.54-.5,1-1.09,1.48-1.6a14.11,14.11,0,0,0,1.62-1.66c-.23-.86-.45-1.68-.66-2.51a6.17,6.17,0,0,1,.15-3c.38-1.63.91-3.23,1.37-4.85a4.51,4.51,0,0,1,2.07-2.77,6.45,6.45,0,0,1,3.33-1.16c1,0,2.06-.16,3.11-.24a1,1,0,0,1,.11.17c2.17-.39,4.25.74,6.13,1.75a6.07,6.07,0,0,1,2.27,1.95,1.06,1.06,0,0,0,.76.08c.24.58.49,1.14.71,1.7a1.59,1.59,0,0,1,.11.56,21.86,21.86,0,0,1-.38,4.85,3.13,3.13,0,0,1-.43,1.07,6.59,6.59,0,0,0-.44.72,10.07,10.07,0,0,0-.71,1.57v0a0,0,0,0,1,0,0c-.12.33-.22.67-.32,1A10.52,10.52,0,0,1,31,42.37l-.07.12c-.11.18-.23.35-.35.51a12.69,12.69,0,0,1-1.79,1.8c-1.25,1.09-2.41,2.28-3.62,3.42a8.33,8.33,0,0,1-.67.5c-.13.09-.31.17-.38.3a4.23,4.23,0,0,1-.51.74.7.7,0,0,1,.2.32c.57,1.72,2,2.94,3,4.37.44.62.86,1.24,1.28,1.86l.25-.24c.92-.9,1.88-1.78,2.78-2.69.71-.71,1.33-1.5,2-2.21,1.58-1.56,3.37-2.93,4.51-4.89a26.45,26.45,0,0,0,1.45-2.52c.61-1.43,1.08-2.92,1.63-4.38a1.88,1.88,0,0,1,.39-.5c-.07-.27-.21-.48-.16-.64a10.46,10.46,0,0,0,.35-2.17,10,10,0,0,0,0-3.28C41,31.63,41.77,30.44,41.2,29.29ZM9.06,32a3.53,3.53,0,0,1-.48,1.81c.32-.58-.18-1-.18-1.57a.53.53,0,0,1,.35-.57c0-.27,0-.54-.05-.81l.2,0C8.83,31.24,9.54,31.48,9.06,32Zm3.38-8.92-.12.63-1.08-.06.51.64c-.26.57-.49,1-.69,1.51-.3.67-.51,1.39-.87,2a2.3,2.3,0,0,0-.47,1.32c0,.29-.39.6-.66.88,0-.37-.31-.74.13-1.1a.7.7,0,0,0,.15-.63c-.34-1.1.55-1.9.69-2.88a.69.69,0,0,1,.68-.67c.1,0,.27-.45.28-.7a.94.94,0,0,1,1-1c-.06-.22-.1-.39-.15-.55l.13-.07.5.61Zm0,0c-.06-.3-.09-.59.51-.58ZM25.68,49.89c.06-.65.35-.77.8-.7Zm6.9-7.54.57-1C33.28,42.14,33.28,42.14,32.58,42.35ZM34.11,41c-.78-.43,0-.9-.27-1.41l.61.2Zm2.39-7.33c-.15.67.16,1.39-.22,2-.11.19-.16.46-.32.58-.33.25-.7.45-.52,1l-.53.12c.86-2.46.72-5,1.25-7.39a1.63,1.63,0,0,0,.17.47c.39.5-.31,1.08.2,1.61S36.61,33.13,36.5,33.66Z"/><path class="cls-1" d="M33.18,68.42a5.27,5.27,0,0,1-.58-2.15.6.6,0,0,0-.08-.28c-.26-.5-.52-1-.77-1.5a18.87,18.87,0,0,0-1.26-2.4c-.58-.84-1.19-1.66-1.82-2.48-.25-.31-.49-.62-.72-.94L27,57.44l0,0c-.5-.73-1-1.47-1.51-2.19-1.12-1.57-2.56-2.84-3.18-4.72a.53.53,0,0,1,0-.17,13.69,13.69,0,0,1-1.13-1.4c-.11-.16-.2-.33-.3-.49a7.84,7.84,0,0,1-1.13,1.1c-.79.58-1.57,1.17-2.36,1.73-.53.37-1.31.68-1.65,1.27a5,5,0,0,0,.23.53c.41.83.88,1.64,1.29,2.47.21.43.3.63.25.83a11.8,11.8,0,0,0,1.81,2.85c.69.75,1.59,1.28,2.31,2a9.74,9.74,0,0,1,2.43,3.74,1.27,1.27,0,0,1,.27.34c.08.17.32.27.36.44a5,5,0,0,0,1.19,1.67,2.83,2.83,0,0,1-.39,3.93,5,5,0,0,1-3,1.46,23.77,23.77,0,0,0-2.55.64,5.16,5.16,0,0,1-.67.1A12.34,12.34,0,0,0,18,79.67.57.57,0,0,1,18,80a1.61,1.61,0,0,0,1.61.38.38.38,0,0,1,.28,0c.43.4,1-.07,1.41.19a10,10,0,0,1,2.83-.32,5.08,5.08,0,0,0,2.3-.54,2.36,2.36,0,0,1,.8-.34c.62-.11,1.22-.19,1.47-.91,0-.07.21-.08.32-.14a3.45,3.45,0,0,0,.66-.35c.59-.5,1.19-1,1.74-1.53a10.76,10.76,0,0,0,1.16-2,2.67,2.67,0,0,0,.54-1.69,7.71,7.71,0,0,1,.05-2.09A4.41,4.41,0,0,0,33.18,68.42Zm-2.7,7.11c.14-1,.14-1,.69-1.06Z"/><path class="cls-1" d="M29.9,27.48c-1.56-.81-3.36-1.9-5.17-1.44a.72.72,0,0,1-.29,0c-.11.24-.17.51-.28.76-.57,1.27-1.23,2.5-1.87,3.73s-1.16,2.25-1.77,3.36c-.36.64-.79,1.25-1.19,1.88a21.67,21.67,0,0,1-3.28,4.45l-.22.19c-.35.37-.72.72-1.1,1.08-.56.53-1,1.16-1.57,1.68s-1.25,1.17-1.92,1.7h0a8.44,8.44,0,0,1-.81,1c-1,.85-2,1.62-3,2.52-1.41,1.33-2.75,2.74-4.11,4.13a4.64,4.64,0,0,0-.84,1.17c-.48.95-.83,2-1.34,2.89a12.28,12.28,0,0,0-.88,3.1,14,14,0,0,0-.13,5.12A12.46,12.46,0,0,0,1,67.35a5.25,5.25,0,0,0,1.46,2.46c.3.25.45.58.93.69s.56.66.83,1l.07.06a43.88,43.88,0,0,0,3.8,2.6c.25-.87.54-1.73.78-2.62s.48-2,.8-3c.16-.47.32-.93.44-1.41,0-.1.06-.21.08-.31l-.14-.12a5.21,5.21,0,0,1-1.41-2c-.23-.6-.48-1.21-.7-1.82a2.43,2.43,0,0,1-.17-1.7,3.72,3.72,0,0,0,.09-1.16,4.8,4.8,0,0,1,.81-2.64,12.34,12.34,0,0,1,2.41-2.78c.66-.57,1.37-1.07,2.06-1.61a2.65,2.65,0,0,0,.42-.4c.26-.32.41-.75.86-.83a3.44,3.44,0,0,1,1-1.1.73.73,0,0,0,.35-.58l.24,0,.06.1c.63-.43,1.24-.87,1.85-1.33.41-.32.87-.57,1.25-.93s.62-.67.92-1l0,0s0,0,0,0a11.83,11.83,0,0,1,1.66-2.43c1.58-1.37,2.2-3.33,3.4-4.93a33.48,33.48,0,0,0,2.2-3.52c.5-.88.91-1.81,1.37-2.72.34-.69.72-1.37,1.07-2.06.48-1,.94-1.95,1.45-2.91A6.51,6.51,0,0,0,29.9,27.48ZM2.28,60c.08.4.08.4-.33.49Zm0,1.52c0-.18-.08-.36-.11-.55l.22,0c0,.2.05.39.07.58Z"/><path class="cls-1" d="M21.72,63.64a9.94,9.94,0,0,0-1.63-1.86,12.79,12.79,0,0,1-2.21-2,17.88,17.88,0,0,1-1.31-2.05c-.11.16-.22.33-.34.49-.29.37-.65.69-1,1a1.7,1.7,0,0,0-.42.93,1.84,1.84,0,0,1-.77,1.15,1.61,1.61,0,0,0-.7.86c-.53,1.38-1.07,2.76-1.6,4.13a10.13,10.13,0,0,1-.54,2.3c-.3.92-.52,1.85-.77,2.78a39.79,39.79,0,0,0-1.59,6,.77.77,0,0,1-.5.65,8.28,8.28,0,0,0-.25,2c-.59,1-.47,2.21-.74,3.3-.55,2.24-.86,4.53-1.27,6.8a.36.36,0,0,1-.07.18c-.77,1.25-.62,2.71-.85,4.07C5,95.58,5.06,96.75,5,97.9c-.08,1-.06,1,.69,1.44.36.22.78.24,1.13.5s.9.16,1.33.26a7.06,7.06,0,0,0,3.51.1,1.07,1.07,0,0,0,.95-1c.19-1.18.37-2.36.53-3.54a17.68,17.68,0,0,1,.69-4.08,13.2,13.2,0,0,0,.5-2.26c.13-.62.16-1.27.34-1.88a8.53,8.53,0,0,0,.45-2.15c0-.23-.41-.44.07-.68.14-.08.06-.58.09-.89a1.42,1.42,0,0,1,.08-.18c.24-.83.5-1.66.72-2.51a6.06,6.06,0,0,0,.36-2,1.35,1.35,0,0,1,.09-.64,17.6,17.6,0,0,1,2.13-7,41.57,41.57,0,0,1,2.08-5.82,8,8,0,0,1,1.09-1.86ZM6.79,96.79c.34.6,0,.87-.43,1.13C6.5,97.54,6.65,97.17,6.79,96.79Zm-.15,2.34L6,98h.39a1.52,1.52,0,0,0,.31.31C7.13,98.53,6.92,98.78,6.64,99.13Zm.34-4c0-.27,0-.46,0-.71C7.39,94.74,7.39,94.74,7,95.13ZM7.29,94a.72.72,0,0,1-.22-.24s.12-.18.16-.17a1.54,1.54,0,0,1,.3.2A1,1,0,0,1,7.29,94Zm.25-.94L6.9,93c.12-.18.2-.32.29-.46l.46.32A2,2,0,0,1,7.54,93.08Zm1.28-6.35c-.15-.24-.41-.41,0-.72Zm6.69-23.46c-.34-.09-.71.09-.83-.48-.18-.84.58-.81,1.06-1.14C15.67,62.16,15.6,62.67,15.51,63.27Z"/></g></g></svg>