<svg xmlns="http://www.w3.org/2000/svg" viewBox="0 0 287.6 98.49"><defs><style>.cls-1{fill:#5cb130;}.cls-2{fill:#507f33;}</style></defs><g id="Capa_2" data-name="Capa 2"><g id="Capa_1-2" data-name="Capa 1"><path class="cls-1" d="M45.58,43c-2.52,3.47-9.08,8.89-12.3,12.38-.94-2-2.88-4-4.48-5.76,1.09-1.18,5.22-4.25,6.28-5.42A63.52,63.52,0,0,0,39.66,39a10.47,10.47,0,0,0-.38-12.85,11.32,11.32,0,0,0-12.37-3.25,10.47,10.47,0,0,0-6.66,11c.06.64.16,1.28.28,1.94a11.27,11.27,0,0,0,.74,3L17,44.38l-3-6.92h0l-.09-.2c-1.9-6.17-.48-11.69,3.76-16.42a17.78,17.78,0,0,1,24.41-1.93A17.58,17.58,0,0,1,45.58,43Z"/><path class="cls-1" d="M36.61,25.25l-1.4,4.25-.64,2,0,0a63.58,63.58,0,0,1-5,9.89c-4,7-9.63,12.71-15.41,18.25-1.21,1.17-2.27,2.51-3.45,3.72A10,10,0,0,0,9.06,75.28c.23.53,1.9,1.48,2.78,2.11L9.26,84.14a17.2,17.2,0,0,1-1.77-.68C5.07,82.25,1.65,78.68.8,76.11c-1.87-5.7-.36-10.65,3.4-15.92a42.41,42.41,0,0,1,5.37-6.07A83.38,83.38,0,0,0,24.43,35.93a58.33,58.33,0,0,0,4.91-10.46l.82-2.31S34.18,22.79,36.61,25.25Z"/><path class="cls-1" d="M34.57,31.46l.64-2C35,30.17,34.8,30.83,34.57,31.46Z"/><path class="cls-1" d="M27,63.73s-7.3,13.54-9.59,21C17,86,13.26,97.34,12.89,98.49H5.26l.89-2.71c3-9.65,11.4-30.6,17-38.39A72.52,72.52,0,0,1,27,63.73Z"/><path class="cls-1" d="M37.59,0C35.79,4,34.67,8.15,33,14.13c2.38.21,4.25.34,6.53,2.21.6-2.12,4.25-11,6.57-16.34Z"/><path class="cls-1" d="M32,81.82A15.87,15.87,0,0,1,23.55,86a51.88,51.88,0,0,1-5.82.41l2.34-5.91c12.12-5,8.64-15.59,7.75-17.14-.16-.28-.32-.56-.47-.84L23.2,54.77,22.1,53a24.65,24.65,0,0,0,4.31-5L29,51.25h0c5.09,6.57,9.27,13.54,7.45,22.32A15.59,15.59,0,0,1,32,81.82Z"/><path class="cls-1" d="M76.19,17.43c-12.06,0-21.55,9-21.55,21.72S64.13,61,76.19,61,97.8,51.85,97.8,39.15,88.31,17.43,76.19,17.43Zm0,33.72c-6.58,0-10.25-5.42-10.25-12s3.67-11.88,10.25-11.88,10.25,5.3,10.25,11.88S82.77,51.15,76.19,51.15Z"/><path class="cls-1" d="M121.18,28.2a11.9,11.9,0,0,0-9.32,4.37V28.78h-9.14V60.12h10V43.63c0-4.71,2.21-6.46,4.66-6.46,3,0,4.42,2.15,4.42,6.11V60.12h10V40C131.72,32.34,127.35,28.2,121.18,28.2Z"/><path class="cls-1" d="M156.43,28.2a11.89,11.89,0,0,0-8.5,3.49V18.3H138V60.12h9.15V56.56a12.48,12.48,0,0,0,9.31,4.14c8.45,0,14-7.28,14-16.25S164.88,28.2,156.43,28.2Zm-2.38,23.53c-3.09,0-6-2.39-6-7.34s3-7.22,6-7.22,6,2.27,6,7.28S157.08,51.73,154.05,51.73Z"/><path class="cls-1" d="M189.07,28.2C179.75,28.2,173,35,173,44.39c0,9.73,6.46,16.25,16.13,16.25,7.8,0,13.34-4,15.26-11.18h-10c-.87,2.27-2.74,3.43-5.53,3.43q-4.82,0-5.59-5.94h21.25C206.37,36.64,199.44,28.2,189.07,28.2Zm-5.65,12.52c.7-3.49,2.45-5.18,5.42-5.18s4.95,2,5.06,5.18Z"/><path class="cls-1" d="M209.42,18.3V60.12h10.07V18.3Z"/><path class="cls-1" d="M238.72,28.2C231,28.2,225.56,33,225,40.26h9c.35-2.74,2-4.26,4.72-4.26S243,37.52,243,40.26v1.51a27.69,27.69,0,0,0-4.6-.35c-9,0-13.92,3.32-13.92,9.44,0,5.94,4.37,9.84,10.89,9.84,4,0,6.76-1.11,9-3.61v3h8V40.78C252.41,32.86,247.34,28.2,238.72,28.2ZM243,49.69c0,2.56-2,4.14-5.3,4.14-2.45,0-3.84-1.23-3.84-3.26s1.8-3.27,5.18-3.27a20,20,0,0,1,4,.41Z"/><path class="cls-1" d="M277.59,28.78l-6.06,19.4-6.76-19.4H253.94l12.23,31L261.8,71.36h10.89L287.6,28.78Z"/><path class="cls-2" d="M57.48,85.83c0-3.68,2.16-5.92,5.05-5.92a4.24,4.24,0,0,1,3.13,1.41l-.79.94a3.09,3.09,0,0,0-2.31-1.07C60.4,81.19,59,83,59,85.79s1.37,4.66,3.53,4.66a3.44,3.44,0,0,0,2.64-1.28l.79.91a4.39,4.39,0,0,1-3.49,1.64C59.6,91.72,57.48,89.53,57.48,85.83Z"/><path class="cls-2" d="M67.92,89.82V79.15h1.43V89.92c0,.44.19.61.39.61a1.44,1.44,0,0,0,.32,0l.19,1.09a2.37,2.37,0,0,1-.82.13C68.36,91.72,67.92,91,67.92,89.82Z"/><path class="cls-2" d="M72.09,80.42a1,1,0,0,1,2,0,1,1,0,0,1-2,0Zm.26,2.66h1.42v8.43H72.35Z"/><path class="cls-2" d="M76.62,83.08H77.8l.12,1.22h0a3.74,3.74,0,0,1,2.63-1.43,2.23,2.23,0,0,1,2.33,1.61,4,4,0,0,1,2.78-1.61c1.73,0,2.57,1.15,2.57,3.3v5.34H86.84V86.35c0-1.57-.5-2.24-1.57-2.24a3.11,3.11,0,0,0-2.11,1.29v6.11H81.73V86.35c0-1.57-.5-2.24-1.57-2.24A3.16,3.16,0,0,0,78,85.4v6.11H76.62Z"/><path class="cls-2" d="M92.33,90.64h0l-.13.87H91V79.15h1.43v3.38l0,1.51A4.28,4.28,0,0,1,95,82.87c2.18,0,3.35,1.69,3.35,4.29,0,2.88-1.73,4.56-3.65,4.56A3.75,3.75,0,0,1,92.33,90.64Zm4.59-3.46c0-1.86-.64-3.11-2.23-3.11a3.42,3.42,0,0,0-2.25,1.15v4.42a3.25,3.25,0,0,0,2,.88C95.89,90.52,96.92,89.26,96.92,87.18Z"/><path class="cls-2" d="M103.32,90l.87-1a4.46,4.46,0,0,0,3.14,1.42c1.5,0,2.38-.75,2.38-1.86s-.82-1.53-1.9-2l-1.63-.72a3.2,3.2,0,0,1-2.31-2.93c0-1.74,1.52-3,3.58-3a4.71,4.71,0,0,1,3.36,1.42l-.77.93a3.64,3.64,0,0,0-2.59-1.07c-1.27,0-2.12.64-2.12,1.66s1,1.51,1.89,1.89l1.62.7c1.32.56,2.35,1.35,2.35,3s-1.49,3.24-3.89,3.24A5.47,5.47,0,0,1,103.32,90Z"/><path class="cls-2" d="M112.66,87.3c0-2.74,1.85-4.43,3.79-4.43,2.15,0,3.37,1.54,3.37,4a4.61,4.61,0,0,1-.07.81h-5.68a2.8,2.8,0,0,0,2.8,2.94,3.7,3.7,0,0,0,2.1-.67l.51.93a4.91,4.91,0,0,1-2.78.88C114.45,91.72,112.66,90.08,112.66,87.3Zm5.89-.69c0-1.69-.76-2.6-2.07-2.6a2.58,2.58,0,0,0-2.42,2.6Z"/><path class="cls-2" d="M121.27,87.3a4.09,4.09,0,0,1,4.06-4.43,3.55,3.55,0,0,1,2.47,1l-.74.94a2.45,2.45,0,0,0-1.67-.74c-1.53,0-2.65,1.31-2.65,3.24s1.06,3.23,2.61,3.23a3,3,0,0,0,2-.84l.62,1a4.12,4.12,0,0,1-2.73,1.07C123,91.72,121.27,90.1,121.27,87.3Z"/><path class="cls-2" d="M129.7,88.42V83.08h1.43v5.16c0,1.57.47,2.24,1.59,2.24.86,0,1.46-.43,2.26-1.42v-6h1.42v8.43h-1.18l-.12-1.32h0a3.59,3.59,0,0,1-2.78,1.53C130.5,91.72,129.7,90.57,129.7,88.42Z"/><path class="cls-2" d="M139.26,83.08h1.18l.12,1.53h0a2.9,2.9,0,0,1,2.4-1.74,1.88,1.88,0,0,1,.9.17l-.26,1.25a2.39,2.39,0,0,0-.82-.13c-.71,0-1.56.51-2.13,1.94v5.41h-1.43Z"/><path class="cls-2" d="M144.48,87.3c0-2.74,1.85-4.43,3.79-4.43,2.15,0,3.37,1.54,3.37,4a4.61,4.61,0,0,1-.07.81h-5.68a2.8,2.8,0,0,0,2.8,2.94,3.7,3.7,0,0,0,2.1-.67l.51.93a4.89,4.89,0,0,1-2.78.88C146.27,91.72,144.48,90.08,144.48,87.3Zm5.9-.69c0-1.69-.76-2.6-2.08-2.6a2.58,2.58,0,0,0-2.42,2.6Z"/><path class="cls-2" d="M157.32,80.12h6.57v1.23h-5.12v3.57h4.32v1.22h-4.32v4.14h5.29v1.23h-6.74Z"/><path class="cls-2" d="M166.34,83.08h1.18l.12,1.21h.05a4,4,0,0,1,2.83-1.42c1.77,0,2.57,1.15,2.57,3.3v5.34h-1.43V86.35c0-1.57-.47-2.24-1.59-2.24a3.19,3.19,0,0,0-2.3,1.29v6.11h-1.43Z"/><path class="cls-2" d="M173.73,95.06,174,94a2.65,2.65,0,0,0,.8.15c.84,0,1-.64,1-1.66V83.08h1.43v9.38c0,1.73-.63,2.82-2.32,2.82A3.52,3.52,0,0,1,173.73,95.06Zm1.86-14.64a1,1,0,0,1,2,0,1,1,0,0,1-2,0Z"/><path class="cls-2" d="M179.5,87.3c0-2.81,1.84-4.43,3.91-4.43s3.91,1.62,3.91,4.43-1.84,4.42-3.91,4.42S179.5,90.1,179.5,87.3Zm6.34,0c0-1.93-1-3.24-2.43-3.24S181,85.37,181,87.3s1,3.23,2.44,3.23S185.84,89.24,185.84,87.3Z"/><path class="cls-2" d="M188.62,95l.28-1.13a2.43,2.43,0,0,0,.64.12c1,0,1.56-.76,1.9-1.81l.2-.62-3.39-8.45h1.47l1.72,4.67c.27.73.55,1.59.83,2.37h.07c.23-.76.47-1.63.7-2.37l1.51-4.67H196l-3.18,9.13c-.6,1.67-1.47,2.94-3.16,2.94A2.61,2.61,0,0,1,188.62,95Z"/><path class="cls-2" d="M203.52,80.12h1.64L209,91.51h-1.54l-2-6.36c-.41-1.27-.78-2.52-1.14-3.84h-.07c-.35,1.32-.72,2.57-1.13,3.84l-2,6.36h-1.47Zm-1.82,6.77h5.24V88H201.7Z"/><path class="cls-2" d="M209.89,87.3c0-2.73,1.73-4.43,3.65-4.43a3.48,3.48,0,0,1,2.36,1l-.06-1.44V79.15h1.43V91.51h-1.18l-.12-1h-.05a3.73,3.73,0,0,1-2.56,1.2C211.26,91.72,209.89,90.12,209.89,87.3Zm6,2.07V85a3,3,0,0,0-2.05-.88c-1.35,0-2.42,1.3-2.42,3.22s.83,3.23,2.31,3.23A2.9,2.9,0,0,0,215.84,89.37Z"/><path class="cls-2" d="M218.91,83.08h1.47l1.6,4.79c.25.82.52,1.68.78,2.49h.07c.25-.81.52-1.67.77-2.49l1.6-4.79h1.4l-3,8.43H222Z"/><path class="cls-2" d="M227.54,87.3c0-2.74,1.85-4.43,3.79-4.43,2.15,0,3.37,1.54,3.37,4a4.61,4.61,0,0,1-.07.81H229a2.8,2.8,0,0,0,2.8,2.94,3.7,3.7,0,0,0,2.1-.67l.51.93a4.89,4.89,0,0,1-2.78.88C229.33,91.72,227.54,90.08,227.54,87.3Zm5.9-.69c0-1.69-.76-2.6-2.08-2.6a2.58,2.58,0,0,0-2.42,2.6Z"/><path class="cls-2" d="M236.78,83.08H238l.12,1.21h0A4.05,4.05,0,0,1,241,82.87c1.78,0,2.58,1.15,2.58,3.3v5.34H242.1V86.35c0-1.57-.47-2.24-1.59-2.24a3.23,3.23,0,0,0-2.31,1.29v6.11h-1.42Z"/><path class="cls-2" d="M246.52,88.9V84.24h-1.25V83.16l1.32-.08.17-2.37H248v2.37h2.29v1.16H248v4.69c0,1,.33,1.63,1.31,1.63a2.93,2.93,0,0,0,1-.23l.27,1.08a5.09,5.09,0,0,1-1.56.31C247.13,91.72,246.52,90.58,246.52,88.9Z"/><path class="cls-2" d="M252,88.42V83.08h1.43v5.16c0,1.57.47,2.24,1.59,2.24.86,0,1.46-.43,2.26-1.42v-6h1.42v8.43h-1.18l-.12-1.32h0a3.61,3.61,0,0,1-2.79,1.53C252.83,91.72,252,90.57,252,88.42Z"/><path class="cls-2" d="M261.59,83.08h1.18l.12,1.53h0a2.9,2.9,0,0,1,2.4-1.74,1.88,1.88,0,0,1,.9.17L266,84.29a2.39,2.39,0,0,0-.82-.13c-.71,0-1.57.51-2.14,1.94v5.41h-1.42Z"/><path class="cls-2" d="M266.81,87.3c0-2.74,1.85-4.43,3.79-4.43,2.15,0,3.37,1.54,3.37,4a4.61,4.61,0,0,1-.07.81h-5.68a2.8,2.8,0,0,0,2.8,2.94,3.7,3.7,0,0,0,2.1-.67l.51.93a4.89,4.89,0,0,1-2.78.88C268.6,91.72,266.81,90.08,266.81,87.3Zm5.9-.69c0-1.69-.76-2.6-2.08-2.6a2.58,2.58,0,0,0-2.42,2.6Z"/><path class="cls-2" d="M275.11,90.55l.71-.94a3.78,3.78,0,0,0,2.49,1c1.11,0,1.65-.59,1.65-1.31s-1-1.25-1.92-1.6c-1.19-.43-2.52-1-2.52-2.44s1.08-2.39,2.91-2.39a4.25,4.25,0,0,1,2.62.95l-.68.91a3.17,3.17,0,0,0-1.92-.75c-1.07,0-1.56.57-1.56,1.21,0,.8.92,1.11,1.88,1.46,1.21.46,2.57,1,2.57,2.56,0,1.37-1.09,2.51-3.08,2.51A5.1,5.1,0,0,1,275.11,90.55Z"/></g></g></svg>