<svg xmlns="http://www.w3.org/2000/svg" viewBox="0 0 286.3 98.49"><defs><style>.cls-1{fill:#5cb130;}</style></defs><g id="Capa_2" data-name="Capa 2"><g id="Capa_1-2" data-name="Capa 1"><path class="cls-1" d="M45.58,43c-2.52,3.47-9.08,8.89-12.3,12.38-.94-2-2.88-4-4.48-5.76,1.09-1.18,5.22-4.25,6.28-5.42A63.52,63.52,0,0,0,39.66,39a10.47,10.47,0,0,0-.38-12.85,11.32,11.32,0,0,0-12.37-3.25,10.47,10.47,0,0,0-6.66,11c.06.64.16,1.28.28,1.94a11.27,11.27,0,0,0,.74,3L17,44.38l-3-6.92h0l-.09-.2c-1.9-6.17-.48-11.69,3.76-16.42a17.78,17.78,0,0,1,24.41-1.93A17.58,17.58,0,0,1,45.58,43Z"/><path class="cls-1" d="M36.61,25.25l-1.4,4.25-.64,2,0,0a63.58,63.58,0,0,1-5,9.89c-4,7-9.63,12.71-15.41,18.25-1.21,1.17-2.27,2.51-3.45,3.72A10,10,0,0,0,9.06,75.28c.23.53,1.9,1.48,2.78,2.11L9.26,84.14a17.2,17.2,0,0,1-1.77-.68C5.07,82.25,1.65,78.68.8,76.11c-1.87-5.7-.36-10.65,3.4-15.92a42.41,42.41,0,0,1,5.37-6.07A83.38,83.38,0,0,0,24.43,35.93a58.33,58.33,0,0,0,4.91-10.46l.82-2.31S34.18,22.79,36.61,25.25Z"/><path class="cls-1" d="M34.57,31.46l.64-2C35,30.17,34.8,30.83,34.57,31.46Z"/><path class="cls-1" d="M27,63.73s-7.3,13.54-9.59,21C17,86,13.26,97.34,12.89,98.49H5.26l.89-2.71c3-9.65,11.4-30.6,17-38.39A72.52,72.52,0,0,1,27,63.73Z"/><path class="cls-1" d="M37.59,0C35.79,4,34.67,8.15,33,14.13c2.38.21,4.25.34,6.53,2.21.6-2.12,4.25-11,6.57-16.34Z"/><path class="cls-1" d="M32,81.82A15.87,15.87,0,0,1,23.55,86a51.88,51.88,0,0,1-5.82.41l2.34-5.91c12.12-5,8.64-15.59,7.75-17.14-.16-.28-.32-.56-.47-.84L23.2,54.77,22.1,53a24.65,24.65,0,0,0,4.31-5L29,51.25h0c5.09,6.57,9.27,13.54,7.45,22.32A15.59,15.59,0,0,1,32,81.82Z"/><path class="cls-1" d="M74.89,43.9c-12.06,0-21.55,9-21.55,21.72s9.49,21.84,21.55,21.84S96.5,78.32,96.5,65.62,87,43.9,74.89,43.9Zm0,33.72c-6.58,0-10.25-5.42-10.25-12s3.67-11.88,10.25-11.88S85.14,59,85.14,65.62,81.47,77.62,74.89,77.62Z"/><path class="cls-1" d="M119.88,54.67A11.9,11.9,0,0,0,110.56,59V55.25h-9.14V86.59h10V70.1c0-4.71,2.21-6.46,4.66-6.46,3,0,4.42,2.15,4.42,6.11V86.59h10V66.43C130.42,58.81,126.05,54.67,119.88,54.67Z"/><path class="cls-1" d="M155.13,54.67a11.89,11.89,0,0,0-8.5,3.49V44.77h-10V86.59h9.15V83a12.48,12.48,0,0,0,9.31,4.14c8.45,0,14-7.28,14-16.25S163.58,54.67,155.13,54.67ZM152.75,78.2c-3.09,0-6-2.39-6-7.34s3-7.22,6-7.22,6,2.27,6,7.28S155.78,78.2,152.75,78.2Z"/><path class="cls-1" d="M187.77,54.67c-9.32,0-16.07,6.81-16.07,16.19,0,9.73,6.46,16.25,16.13,16.25,7.8,0,13.34-4,15.26-11.18h-10c-.87,2.27-2.74,3.43-5.53,3.43q-4.82,0-5.59-5.94h21.25C205.07,63.11,198.14,54.67,187.77,54.67Zm-5.65,12.52c.7-3.49,2.45-5.18,5.42-5.18s5,2,5.06,5.18Z"/><path class="cls-1" d="M208.12,44.77V86.59h10.07V44.77Z"/><path class="cls-1" d="M237.42,54.67c-7.75,0-13.16,4.78-13.75,12.06h9c.35-2.74,2-4.26,4.72-4.26s4.37,1.52,4.37,4.26v1.51a27.69,27.69,0,0,0-4.6-.35c-9,0-13.92,3.32-13.92,9.44,0,5.94,4.37,9.84,10.89,9.84,4,0,6.76-1.11,9-3.61v3h8V67.25C251.11,59.33,246,54.67,237.42,54.67Zm4.31,21.49c0,2.56-2,4.14-5.3,4.14-2.45,0-3.84-1.23-3.84-3.26s1.8-3.27,5.18-3.27a20,20,0,0,1,4,.41Z"/><path class="cls-1" d="M276.29,55.25l-6.06,19.4-6.76-19.4H252.64l12.23,31L260.5,97.83h10.89L286.3,55.25Z"/></g></g></svg>